<?xml version="1.0" standalone="no"?>
<!DOCTYPE svg PUBLIC "-//W3C//DTD SVG 20010904//EN"
 "http://www.w3.org/TR/2001/REC-SVG-20010904/DTD/svg10.dtd">
<svg version="1.0" xmlns="http://www.w3.org/2000/svg"
 width="1920.000000pt" height="1200.000000pt" viewBox="0 0 1920.000000 1200.000000"
 preserveAspectRatio="xMidYMid meet">

<g transform="translate(0.000000,1200.000000) scale(0.100000,-0.100000)"
fill="#000000" stroke="none">
<path d="M4360 9351 c-204 -45 -354 -136 -517 -313 -159 -173 -275 -395 -352
-674 -43 -156 -365 -1699 -397 -1902 -7 -43 -12 -48 -228 -220 -609 -487
-1111 -837 -1632 -1137 -194 -112 -483 -262 -657 -341 -184 -83 -242 -148
-254 -283 -16 -184 171 -338 354 -292 59 15 535 250 738 364 453 255 983 605
1393 920 56 43 102 76 102 73 0 -3 -45 -239 -100 -523 -86 -440 -203 -1066
-266 -1411 -9 -52 -14 -117 -12 -145 15 -179 201 -301 369 -242 118 42 167
107 204 273 259 1133 559 1826 915 2115 139 112 297 167 483 167 294 0 399
-99 414 -390 7 -131 -12 -267 -72 -520 -86 -363 -111 -557 -102 -804 4 -127
11 -182 31 -261 83 -322 297 -539 614 -622 79 -21 128 -26 267 -30 405 -12
784 80 1242 303 l152 74 83 -54 c434 -282 1001 -343 1541 -165 308 101 568
260 908 558 l46 40 64 -76 c166 -198 423 -373 701 -477 294 -109 651 -143 928
-86 340 69 727 290 1055 601 l60 57 83 -94 c354 -399 896 -635 1343 -585 296
33 553 160 770 381 47 48 100 108 119 133 l33 47 66 -97 c169 -249 418 -412
731 -480 105 -22 378 -25 485 -4 413 78 744 328 970 731 120 215 196 443 239
716 20 129 21 388 1 509 -21 126 -25 116 53 109 85 -8 314 11 450 37 273 53
553 180 742 338 88 74 177 173 199 221 30 65 28 169 -3 235 -45 97 -153 165
-263 165 -77 0 -136 -31 -231 -122 -100 -95 -189 -152 -315 -203 -193 -78
-441 -116 -624 -96 -190 21 -312 66 -410 154 -178 159 -330 243 -543 299 -112
29 -376 32 -515 6 -459 -87 -791 -335 -999 -747 -79 -155 -151 -404 -191 -656
-27 -173 -42 -235 -91 -376 -76 -220 -192 -407 -335 -543 -220 -210 -483 -250
-794 -121 -154 64 -267 138 -394 259 -76 73 -191 210 -191 227 0 5 31 56 68
112 555 828 1040 1950 1222 2826 61 290 100 605 100 800 0 131 -24 327 -55
439 -107 396 -361 641 -729 703 -95 16 -301 6 -394 -19 -368 -101 -643 -432
-814 -982 -117 -378 -212 -1009 -253 -1680 -17 -274 -20 -869 -5 -1085 29
-421 91 -804 160 -984 l21 -53 -25 -33 c-60 -79 -290 -276 -441 -377 -249
-168 -476 -239 -719 -224 -305 17 -592 142 -783 338 -70 72 -155 189 -151 208
2 8 46 80 99 160 404 608 869 1671 1099 2515 50 184 114 498 135 664 36 283
36 608 0 816 -67 380 -268 624 -590 717 -70 20 -102 23 -255 23 -158 0 -182
-2 -245 -24 -326 -110 -587 -398 -766 -843 -97 -240 -159 -490 -209 -837 -62
-434 -88 -795 -97 -1316 -10 -675 33 -1220 134 -1668 l27 -118 -80 -81 c-317
-322 -675 -523 -1024 -574 -150 -21 -339 -15 -467 15 -101 25 -179 52 -182 64
-1 4 33 35 74 68 419 332 679 820 702 1315 22 468 -179 842 -542 1010 -139 64
-211 79 -390 78 -187 0 -258 -16 -408 -88 -374 -180 -615 -593 -646 -1107 -22
-385 43 -732 198 -1045 l66 -133 -25 -12 c-113 -53 -241 -105 -343 -139 -241
-79 -397 -104 -611 -98 -128 3 -146 6 -196 30 -64 31 -78 42 -108 85 -47 66
-57 124 -57 318 1 201 12 277 90 605 54 227 74 356 81 525 19 407 -120 731
-390 909 -164 108 -342 156 -586 156 -339 0 -624 -101 -868 -308 -52 -44 -62
-49 -57 -30 3 13 8 40 13 60 6 32 27 54 157 163 428 362 708 655 941 985 412
584 607 1250 487 1670 -33 115 -83 201 -168 285 -132 133 -248 181 -460 190
-85 4 -129 1 -195 -14z m240 -561 c26 -14 50 -99 50 -175 0 -137 -60 -382
-142 -575 -90 -215 -231 -444 -405 -660 -94 -117 -302 -344 -309 -338 -6 7
196 971 240 1143 69 266 176 451 319 549 30 21 72 44 93 51 46 17 128 19 154
5z m6025 -111 c163 -45 223 -326 174 -819 -50 -505 -269 -1226 -605 -1990
-116 -263 -383 -789 -384 -755 0 6 -7 75 -15 155 -49 495 -45 1199 11 1790 37
402 95 738 165 955 101 317 276 589 421 655 49 22 168 27 233 9z m2768 -5 c93
-31 173 -132 210 -264 58 -201 44 -506 -43 -940 -112 -559 -358 -1234 -686
-1880 -108 -213 -277 -513 -291 -517 -11 -4 -15 21 -39 257 -22 201 -30 853
-15 1130 34 610 119 1214 222 1585 78 280 208 513 325 586 95 59 221 76 317
43z m-5839 -2909 c92 -28 154 -82 199 -173 43 -85 52 -138 51 -287 -2 -179
-29 -289 -113 -460 -71 -143 -157 -260 -274 -372 -92 -88 -257 -214 -270 -206
-15 9 -88 166 -117 253 -58 173 -84 401 -69 611 23 315 165 562 364 631 61 21
164 23 229 3z m8660 -5 c99 -25 165 -61 239 -130 115 -106 184 -225 233 -402
35 -126 44 -346 20 -494 -58 -367 -240 -687 -475 -839 -195 -126 -461 -150
-675 -61 -249 104 -404 430 -382 802 7 121 28 286 46 374 51 239 162 450 306
578 170 152 472 227 688 172z"/>
<path d="M18047 3899 c-233 -36 -314 -351 -127 -498 59 -47 120 -65 202 -59
155 10 260 127 259 288 0 173 -154 297 -334 269z"/>
</g>
</svg>
