<?xml version="1.0" standalone="no"?>
<!DOCTYPE svg PUBLIC "-//W3C//DTD SVG 20010904//EN"
 "http://www.w3.org/TR/2001/REC-SVG-20010904/DTD/svg10.dtd">
<svg version="1.0" xmlns="http://www.w3.org/2000/svg"
 width="512.000000pt" height="512.000000pt" viewBox="0 0 512.000000 512.000000"
 preserveAspectRatio="xMidYMid meet">

<g transform="translate(0.000000,512.000000) scale(0.100000,-0.100000)"
fill="#000000" stroke="none">
<path d="M1145 4355 c-240 -50 -450 -260 -500 -500 -46 -219 32 -507 213 -785
214 -330 568 -645 876 -780 l74 -32 95 45 c372 176 760 558 945 932 179 362
173 670 -18 901 -77 94 -199 172 -326 210 -81 25 -257 25 -339 0 -109 -32
-213 -94 -289 -171 l-71 -71 -65 66 c-78 79 -159 130 -263 165 -98 32 -232 41
-332 20z"/>
<path d="M4210 2791 c-210 -220 -210 -1341 -1 -1562 44 -46 68 -49 111 -13 60
51 112 191 147 399 26 159 26 631 0 790 -35 208 -87 348 -147 399 -43 36 -67
33 -110 -13z m28 -514 c45 -48 56 -101 56 -267 0 -166 -11 -219 -56 -267 -28
-30 -52 -29 -77 4 -39 48 -55 128 -55 263 0 141 19 225 59 266 30 30 46 30 73
1z"/>
<path d="M2815 2434 c-495 -37 -513 -40 -561 -97 -66 -78 -98 -187 -98 -327 0
-137 27 -233 91 -318 37 -49 86 -69 191 -77 l93 -8 -5 -26 c-3 -14 -19 -158
-37 -318 -37 -343 -36 -355 40 -434 56 -58 106 -74 208 -66 126 9 211 64 241
154 8 24 7 45 -4 87 -45 173 -33 393 29 524 l20 44 106 -6 c58 -4 123 -9 145
-12 l38 -6 -32 47 c-146 212 -146 618 -1 829 27 39 29 46 14 45 -10 -1 -225
-17 -478 -35z"/>
</g>
</svg>
