<?xml version="1.0" standalone="no"?>
<!DOCTYPE svg PUBLIC "-//W3C//DTD SVG 20010904//EN"
 "http://www.w3.org/TR/2001/REC-SVG-20010904/DTD/svg10.dtd">
<svg version="1.0" xmlns="http://www.w3.org/2000/svg"
 width="1024.000000pt" height="1024.000000pt" viewBox="0 0 1024.000000 1024.000000"
 preserveAspectRatio="xMidYMid meet">
<metadata>
Created by potrace 1.14, written by Peter Selinger 2001-2017
</metadata>
<g transform="translate(0.000000,1024.000000) scale(0.100000,-0.100000)"
fill="#000000" stroke="none">
<path d="M1720 9709 c-204 -17 -401 -73 -595 -170 -468 -232 -797 -679 -886
-1200 -18 -106 -20 -151 -16 -309 4 -161 9 -208 40 -360 57 -276 116 -463 222
-701 389 -870 1245 -1797 2162 -2338 131 -77 413 -216 501 -247 51 -18 55 -18
105 0 68 23 332 151 449 217 230 129 574 372 803 569 687 590 1212 1286 1475
1955 124 316 200 678 200 952 0 379 -122 726 -361 1023 -389 484 -1023 710
-1626 579 -377 -82 -702 -286 -961 -604 l-32 -40 -33 40 c-123 150 -245 265
-382 357 -235 158 -503 253 -787 278 -124 11 -140 11 -278 -1z"/>
<path d="M9360 5818 c-417 -87 -982 -273 -1500 -494 -202 -85 -578 -269 -732
-357 l-97 -55 -1218 -87 c-1008 -72 -1227 -90 -1271 -105 -290 -102 -472 -476
-472 -972 0 -375 90 -661 266 -848 68 -72 161 -128 244 -148 25 -6 134 -16
242 -23 l198 -12 -6 -36 c-19 -134 -164 -1487 -164 -1536 0 -74 29 -194 63
-262 65 -127 190 -233 331 -280 74 -25 94 -27 226 -26 184 1 297 24 427 88
155 76 254 196 285 347 11 52 9 68 -20 195 -46 198 -62 314 -69 518 -11 323
34 572 147 813 l39 82 43 0 c24 0 193 -11 377 -25 l334 -25 106 -60 c221 -126
623 -315 936 -440 515 -205 1193 -410 1362 -411 256 -2 467 565 555 1491 18
185 17 985 0 1180 -58 639 -176 1106 -343 1351 -44 65 -88 105 -144 130 -44
20 -76 22 -145 7z"/>
</g>
</svg>
